<svg width="292" height="263" viewBox="0 0 292 263" fill="none" xmlns="http://www.w3.org/2000/svg">
<line x1="34.5673" y1="67.187" x2="58.187" y2="131.433" stroke="#009FE3" stroke-width="4" stroke-linecap="round" stroke-dasharray="0.2 9"/>
<line x1="2" y1="-2" x2="70.45" y2="-2" transform="matrix(-0.345066 0.938579 0.938579 0.345066 223 66)" stroke="#009FE3" stroke-width="4" stroke-linecap="round" stroke-dasharray="0.2 9"/>
<line x1="91.5673" y1="67.187" x2="115.187" y2="131.433" stroke="#009FE3" stroke-width="4" stroke-linecap="round" stroke-dasharray="0.2 9"/>
<line x1="2" y1="-2" x2="70.45" y2="-2" transform="matrix(-0.345066 0.938579 0.938579 0.345066 166 66)" stroke="#009FE3" stroke-width="4" stroke-linecap="round" stroke-dasharray="0.2 9"/>
<rect x="0.5" y="0.5" width="42.4043" height="64.1064" fill="white" stroke="#0B0C0C"/>
<rect width="43.4043" height="6.78191" fill="#0B0C0C"/>
<g filter="url(#filter0_i_278_1198)">
<rect x="4.74731" y="50.8643" width="17.633" height="6.78191" fill="#00823B"/>
</g>
<rect x="6" y="14" width="27" height="1" fill="#BFC1C3" stroke="#0B0C0C" stroke-width="2"/>
<rect x="6" y="19" width="22" height="1" fill="#BFC1C3" stroke="#0B0C0C" stroke-width="2"/>
<rect x="4.74756" y="29.1621" width="14.9202" height="0.678191" fill="#0B0C0C"/>
<rect x="4.74756" y="33.2314" width="33.9096" height="0.678191" fill="#0B0C0C"/>
<rect x="4.74756" y="38.657" width="33.9096" height="0.678191" fill="#0B0C0C"/>
<rect x="4.74756" y="35.9441" width="33.9096" height="0.678191" fill="#0B0C0C"/>
<rect x="4.74756" y="41.3696" width="27.1277" height="0.678191" fill="#0B0C0C"/>
<rect x="70.5" y="1.5" width="42.4043" height="64.1064" fill="white" stroke="#0B0C0C"/>
<rect x="70" y="1" width="43.4043" height="6.78191" fill="#0B0C0C"/>
<g filter="url(#filter1_i_278_1198)">
<rect x="74.7473" y="43.7261" width="17.633" height="6.78191" fill="#00823B"/>
</g>
<rect x="75.2473" y="30.6621" width="32.9096" height="5.78191" fill="white" stroke="#0B0C0C"/>
<rect x="76.4681" y="14" width="27" height="1" fill="#BFC1C3" stroke="#C8C8C8" stroke-width="2"/>
<rect x="76.4681" y="19" width="12" height="1" fill="#BFC1C3" stroke="#C8C8C8" stroke-width="2"/>
<rect x="141.032" y="1.5" width="42.4043" height="64.1064" fill="white" stroke="#0B0C0C"/>
<rect x="140.532" y="1" width="43.4043" height="6.78191" fill="#0B0C0C"/>
<g filter="url(#filter2_i_278_1198)">
<rect x="145.279" y="51.186" width="17.633" height="6.78191" fill="#00823B"/>
</g>
<rect x="145.279" y="41.0132" width="33.9096" height="0.678191" fill="#BFC1C3"/>
<rect x="145.279" y="35.5876" width="33.9096" height="0.678191" fill="#BFC1C3"/>
<rect x="145.279" y="30.1621" width="33.9096" height="0.678191" fill="#BFC1C3"/>
<rect x="172.407" y="32.875" width="6.78191" height="0.678191" fill="#005EA5"/>
<rect x="172.407" y="43.7261" width="6.78191" height="0.678191" fill="#005EA5"/>
<rect x="172.407" y="38.3005" width="6.78191" height="0.678191" fill="#005EA5"/>
<rect x="145.279" y="32.875" width="5.42553" height="0.678191" fill="#0B0C0C"/>
<rect x="154.096" y="32.875" width="14.9202" height="0.678191" fill="#0B0C0C"/>
<rect x="145.279" y="43.7261" width="5.42553" height="0.678191" fill="#0B0C0C"/>
<rect x="154.096" y="43.7261" width="14.9202" height="0.678191" fill="#0B0C0C"/>
<rect x="145.279" y="38.3005" width="5.42553" height="0.678191" fill="#0B0C0C"/>
<rect x="154.096" y="38.3005" width="14.9202" height="0.678191" fill="#0B0C0C"/>
<g clip-path="url(#clip0_278_1198)">
<rect x="145.468" y="14" width="27" height="1" fill="#BFC1C3" stroke="#C8C8C8" stroke-width="2"/>
<rect x="145.468" y="19" width="18" height="1" fill="#BFC1C3" stroke="#C8C8C8" stroke-width="2"/>
</g>
<rect x="211.5" y="1.5" width="42.4043" height="64.1064" fill="white" stroke="#0B0C0C"/>
<rect x="211" y="1" width="43.4043" height="6.78191" fill="#0B0C0C"/>
<rect x="215.747" y="30.1621" width="14.9202" height="0.678191" fill="#0B0C0C"/>
<rect x="215.747" y="34.2314" width="33.9096" height="0.678191" fill="#0B0C0C"/>
<rect x="215.747" y="39.657" width="33.9096" height="0.678191" fill="#0B0C0C"/>
<rect x="215.747" y="36.9441" width="33.9096" height="0.678191" fill="#0B0C0C"/>
<rect x="215.747" y="42.3696" width="27.1277" height="0.678191" fill="#0B0C0C"/>
<rect x="215.747" y="11.1729" width="33.9096" height="15.5984" fill="#00823B"/>
<path d="M99.9685 217.87H159.443V235.351H99.9685V217.87Z" fill="white"/>
<path d="M36.476 230.632V105.261C36.476 100.22 40.548 96.145 45.5846 96.145H215.97C221.006 96.145 225.078 100.22 225.078 105.261V230.632" fill="#1E1E1E"/>
<path d="M225.4 230.632H224.864V105.261C224.864 100.381 220.899 96.4132 216.023 96.4132H45.6381C40.7623 96.4132 36.7974 100.381 36.7974 105.261V230.632H36.2616V105.261C36.3152 100.113 40.4944 95.9306 45.6381 95.877H216.023C221.167 95.9306 225.346 100.113 225.4 105.261V230.632Z" fill="#EDEDED"/>
<path d="M50.4067 110.087H211.147V211.703H50.4067V110.087Z" fill="#2B8CC4"/>
<path d="M211.469 211.971H50.1925V109.819H211.469V211.971ZM50.7283 211.435H210.933V110.355H50.7283V211.435Z" fill="#0B0C0C"/>
<path d="M199.36 121.884V199.906H62.1944V121.884H199.36ZM200.431 120.812H61.1228V200.978H200.431V120.812Z" fill="#0B0C0C"/>
<path d="M61.1228 120.812H200.431V134.486H61.1228V120.812Z" fill="#0B0C0C"/>
<path d="M70.3922 183.98H121.668V192.023H70.3922V183.98Z" fill="#00703C"/>
<path d="M109.827 225.431H151.941V232.723H109.827V225.431Z" fill="#505A5F"/>
<path d="M147.976 229.935H113.631C111.595 229.935 109.881 227.736 109.72 225.645H8.61426V236.906L36.476 240.123H225.078L252.94 236.906V225.645H151.888C151.727 227.844 150.066 229.935 147.976 229.935Z" fill="#B2B2B2"/>
<path d="M8.61426 236.906L36.476 240.123H225.078L252.94 236.906H8.61426Z" fill="#505A5F"/>
<path d="M252.94 225.645H151.888C151.781 227.844 150.12 229.935 147.976 229.935H113.631C111.595 229.935 109.881 227.736 109.72 225.645H8.61426" stroke="#EDEDED" stroke-miterlimit="10"/>
<path d="M8.61426 240.123H252.94V241.732H8.61426V240.123Z" fill="#1A345C"/>
<path d="M70.3922 192.023H121.668V193.096H70.3922V192.023Z" fill="#0B0C0C"/>
<path d="M62 134H200V200H62V134Z" fill="white"/>
<rect x="103" y="144" width="10" height="4" fill="#009FE3" stroke="#009FE3" stroke-width="2"/>
<rect x="103" y="152" width="22" height="1" fill="#BFC1C3" stroke="#C8C8C8" stroke-width="2"/>
<rect x="136" y="144" width="10" height="4" fill="#009FE3" stroke="#009FE3" stroke-width="2"/>
<rect x="136" y="152" width="22" height="1" fill="#BFC1C3" stroke="#C8C8C8" stroke-width="2"/>
<rect x="70" y="144" width="10" height="4" fill="#009FE3" stroke="#009FE3" stroke-width="2"/>
<rect x="70" y="152" width="22" height="1" fill="#BFC1C3" stroke="#C8C8C8" stroke-width="2"/>
<rect x="169" y="144" width="10" height="4" fill="#009FE3" stroke="#009FE3" stroke-width="2"/>
<rect x="169" y="152" width="22" height="1" fill="#BFC1C3" stroke="#C8C8C8" stroke-width="2"/>
<rect x="74" y="189" width="10" height="4" transform="rotate(-90 74 189)" fill="#009FE3" stroke="#009FE3" stroke-width="2"/>
<rect x="83" y="189" width="17" height="4" transform="rotate(-90 83 189)" fill="#009FE3" stroke="#009FE3" stroke-width="2"/>
<rect x="92" y="189" width="22" height="4" transform="rotate(-90 92 189)" fill="#009FE3" stroke="#009FE3" stroke-width="2"/>
<rect x="101" y="189" width="26" height="4" transform="rotate(-90 101 189)" fill="#009FE3" stroke="#009FE3" stroke-width="2"/>
<path d="M69.6733 125.099H71.3926C71.6227 125.099 71.8312 125.137 72.0181 125.215C72.2049 125.29 72.3644 125.396 72.4966 125.533C72.631 125.667 72.7336 125.829 72.8042 126.018C72.8771 126.207 72.9136 126.415 72.9136 126.64C72.9136 126.868 72.8737 127.076 72.7939 127.266C72.7165 127.452 72.6071 127.613 72.4658 127.748C72.3245 127.882 72.1559 127.987 71.96 128.062C71.7663 128.135 71.5544 128.171 71.3242 128.171H70.2749V130H69.6733V125.099ZM72.2744 126.626C72.2744 126.483 72.2516 126.35 72.2061 126.227C72.1605 126.104 72.0944 125.998 72.0078 125.909C71.9212 125.818 71.8153 125.747 71.6899 125.697C71.5669 125.644 71.4268 125.618 71.2695 125.618H70.2749V127.655H71.2695C71.4268 127.655 71.5669 127.63 71.6899 127.58C71.8153 127.53 71.9212 127.462 72.0078 127.375C72.0944 127.286 72.1605 127.181 72.2061 127.061C72.2516 126.938 72.2744 126.804 72.2744 126.661V126.626ZM73.9492 128.431C73.9606 128.595 73.9937 128.747 74.0483 128.886C74.103 129.025 74.1771 129.146 74.2705 129.248C74.3662 129.348 74.4779 129.427 74.6055 129.484C74.7354 129.539 74.8789 129.566 75.0361 129.566C75.2298 129.566 75.3996 129.534 75.5454 129.47C75.6935 129.404 75.8291 129.322 75.9521 129.224L76.2461 129.638C76.0889 129.763 75.9066 129.867 75.6992 129.949C75.4941 130.028 75.264 130.068 75.0088 130.068C74.7559 130.068 74.5269 130.024 74.3218 129.935C74.1167 129.844 73.9412 129.719 73.7954 129.559C73.6519 129.397 73.5413 129.206 73.4639 128.985C73.3864 128.762 73.3477 128.519 73.3477 128.257C73.3477 127.99 73.3853 127.746 73.4604 127.525C73.5379 127.302 73.6462 127.111 73.7852 126.951C73.9242 126.789 74.0905 126.664 74.2842 126.575C74.4779 126.484 74.6932 126.438 74.9302 126.438C75.1603 126.438 75.3677 126.484 75.5522 126.575C75.7368 126.664 75.894 126.789 76.0239 126.951C76.1538 127.111 76.2529 127.302 76.3213 127.525C76.3919 127.746 76.4272 127.988 76.4272 128.25V128.431H73.9492ZM74.9097 126.941C74.7638 126.941 74.634 126.969 74.52 127.026C74.4061 127.083 74.3081 127.16 74.2261 127.255C74.1463 127.351 74.0825 127.462 74.0347 127.587C73.9891 127.71 73.9629 127.838 73.9561 127.97H75.8052C75.8006 127.835 75.7767 127.707 75.7334 127.583C75.6924 127.458 75.6331 127.349 75.5557 127.255C75.4805 127.16 75.3882 127.083 75.2788 127.026C75.1717 126.969 75.0487 126.941 74.9097 126.941ZM79.0146 127.02H78.9224C78.7743 127.02 78.633 127.037 78.4985 127.071C78.3641 127.105 78.2456 127.167 78.1431 127.255C78.0405 127.344 77.9585 127.466 77.897 127.621C77.8354 127.774 77.8047 127.97 77.8047 128.209V130H77.2305V126.507H77.8047V127.061C77.848 126.958 77.9061 126.868 77.979 126.791C78.0519 126.713 78.134 126.649 78.2251 126.599C78.3185 126.547 78.4176 126.508 78.5225 126.483C78.6296 126.458 78.7378 126.445 78.8472 126.445H79.0146V127.02ZM80.5083 126.507H81.2021V127.013H80.5083V130H79.9341V127.013H79.353V126.507H79.9341V125.857C79.9341 125.707 79.958 125.579 80.0059 125.475C80.0537 125.37 80.1198 125.285 80.2041 125.222C80.2907 125.156 80.3921 125.109 80.5083 125.082C80.6268 125.052 80.7555 125.037 80.8945 125.037C81.0358 125.037 81.1532 125.044 81.2466 125.058C81.34 125.069 81.4095 125.078 81.4551 125.085L81.4106 125.577C81.3765 125.575 81.3366 125.571 81.291 125.567C81.2477 125.562 81.2021 125.559 81.1543 125.557C81.1087 125.554 81.0643 125.552 81.021 125.55C80.9777 125.548 80.9424 125.546 80.915 125.546C80.833 125.546 80.7658 125.559 80.7134 125.584C80.661 125.607 80.6188 125.638 80.5869 125.676C80.5573 125.715 80.5368 125.759 80.5254 125.81C80.514 125.86 80.5083 125.912 80.5083 125.967V126.507ZM83.27 126.438C83.5116 126.438 83.7314 126.484 83.9297 126.575C84.1279 126.664 84.2965 126.789 84.4355 126.951C84.5768 127.111 84.6862 127.302 84.7637 127.525C84.8411 127.746 84.8799 127.99 84.8799 128.257C84.8799 128.519 84.8411 128.762 84.7637 128.985C84.6862 129.206 84.5768 129.397 84.4355 129.559C84.2965 129.719 84.1279 129.844 83.9297 129.935C83.7314 130.024 83.5116 130.068 83.27 130.068C83.0285 130.068 82.8086 130.024 82.6104 129.935C82.4144 129.844 82.2458 129.719 82.1045 129.559C81.9632 129.397 81.8538 129.206 81.7764 128.985C81.6989 128.762 81.6602 128.519 81.6602 128.257C81.6602 127.99 81.6989 127.746 81.7764 127.525C81.8538 127.302 81.9632 127.111 82.1045 126.951C82.2458 126.789 82.4144 126.664 82.6104 126.575C82.8086 126.484 83.0285 126.438 83.27 126.438ZM83.27 129.566C83.4364 129.566 83.5822 129.532 83.7075 129.463C83.8351 129.393 83.9411 129.298 84.0254 129.18C84.112 129.061 84.1769 128.924 84.2202 128.77C84.2635 128.612 84.2852 128.448 84.2852 128.277V128.236C84.2852 128.061 84.2635 127.895 84.2202 127.737C84.1769 127.58 84.112 127.443 84.0254 127.327C83.9411 127.209 83.8351 127.115 83.7075 127.047C83.5822 126.976 83.4364 126.941 83.27 126.941C83.1037 126.941 82.9567 126.976 82.8291 127.047C82.7038 127.115 82.5978 127.209 82.5112 127.327C82.4269 127.443 82.3631 127.58 82.3198 127.737C82.2765 127.895 82.2549 128.061 82.2549 128.236V128.277C82.2549 128.448 82.2765 128.612 82.3198 128.77C82.3631 128.924 82.4269 129.061 82.5112 129.18C82.5978 129.298 82.7038 129.393 82.8291 129.463C82.9567 129.532 83.1037 129.566 83.27 129.566ZM87.5049 127.02H87.4126C87.2645 127.02 87.1232 127.037 86.9888 127.071C86.8543 127.105 86.7358 127.167 86.6333 127.255C86.5308 127.344 86.4487 127.466 86.3872 127.621C86.3257 127.774 86.2949 127.97 86.2949 128.209V130H85.7207V126.507H86.2949V127.061C86.3382 126.958 86.3963 126.868 86.4692 126.791C86.5422 126.713 86.6242 126.649 86.7153 126.599C86.8088 126.547 86.9079 126.508 87.0127 126.483C87.1198 126.458 87.228 126.445 87.3374 126.445H87.5049V127.02ZM90.7998 130H90.2256V127.802C90.2256 127.647 90.2062 127.516 90.1675 127.409C90.131 127.302 90.0809 127.215 90.0171 127.149C89.9556 127.083 89.8815 127.035 89.7949 127.006C89.7106 126.976 89.6206 126.961 89.5249 126.961C89.4292 126.961 89.3346 126.981 89.2412 127.02C89.1501 127.056 89.068 127.114 88.9951 127.194C88.9245 127.274 88.8664 127.375 88.8208 127.498C88.7775 127.619 88.7559 127.765 88.7559 127.936V130H88.1816V126.507H88.7559V126.907C88.8721 126.745 89.0065 126.626 89.1592 126.551C89.3141 126.476 89.485 126.438 89.6719 126.438C89.7493 126.438 89.8337 126.45 89.9248 126.473C90.016 126.493 90.1048 126.526 90.1914 126.572C90.2803 126.617 90.3612 126.678 90.4341 126.753C90.5093 126.826 90.5697 126.915 90.6152 127.02C90.679 126.912 90.752 126.822 90.834 126.75C90.9183 126.674 91.006 126.614 91.0972 126.568C91.1906 126.523 91.2863 126.49 91.3843 126.469C91.4845 126.449 91.5837 126.438 91.6816 126.438C91.8708 126.438 92.0382 126.47 92.1841 126.534C92.3299 126.598 92.453 126.683 92.5532 126.791C92.6535 126.898 92.7287 127.022 92.7788 127.163C92.8312 127.304 92.8574 127.452 92.8574 127.607V130H92.2832V127.802C92.2832 127.647 92.2638 127.516 92.2251 127.409C92.1864 127.302 92.134 127.215 92.0679 127.149C92.0018 127.083 91.9255 127.035 91.8389 127.006C91.7523 126.976 91.6623 126.961 91.5688 126.961C91.4731 126.961 91.3786 126.981 91.2852 127.02C91.194 127.056 91.112 127.114 91.0391 127.194C90.9684 127.274 90.9103 127.375 90.8647 127.498C90.8215 127.619 90.7998 127.765 90.7998 127.936V130ZM95.8687 129.651C95.7661 129.77 95.6271 129.869 95.4517 129.949C95.2785 130.028 95.0745 130.068 94.8398 130.068C94.6667 130.068 94.506 130.044 94.3579 129.997C94.2098 129.946 94.0811 129.876 93.9717 129.785C93.8623 129.694 93.7769 129.583 93.7153 129.453C93.6538 129.323 93.623 129.176 93.623 129.012C93.623 128.875 93.6447 128.751 93.688 128.64C93.7336 128.526 93.7962 128.427 93.876 128.342C93.958 128.258 94.056 128.19 94.1699 128.137C94.2839 128.083 94.4115 128.045 94.5527 128.024L95.7866 127.857V127.635C95.7866 127.503 95.7661 127.392 95.7251 127.303C95.6841 127.212 95.6283 127.14 95.5576 127.088C95.4893 127.035 95.4072 126.998 95.3115 126.975C95.2181 126.952 95.1167 126.941 95.0073 126.941C94.8114 126.941 94.6279 126.968 94.457 127.023C94.2884 127.078 94.1357 127.141 93.999 127.214L93.7837 126.76C93.9842 126.646 94.1938 126.564 94.4126 126.514C94.6336 126.464 94.8512 126.438 95.0654 126.438C95.4915 126.438 95.814 126.535 96.0327 126.729C96.2515 126.92 96.3608 127.201 96.3608 127.57V129.18C96.3608 129.296 96.3836 129.394 96.4292 129.474C96.4748 129.551 96.5477 129.613 96.6479 129.658L96.3232 130.068C96.2139 130.041 96.1193 129.993 96.0396 129.925C95.9621 129.854 95.9074 129.77 95.8755 129.672L95.8687 129.651ZM94.8467 128.445C94.751 128.458 94.6632 128.478 94.5835 128.503C94.506 128.528 94.4399 128.562 94.3853 128.605C94.3306 128.646 94.2873 128.698 94.2554 128.759C94.2257 128.821 94.2109 128.896 94.2109 128.985C94.2109 129.087 94.2303 129.179 94.269 129.258C94.3078 129.338 94.3602 129.405 94.4263 129.46C94.4924 129.515 94.5687 129.557 94.6553 129.586C94.7441 129.614 94.8364 129.627 94.9321 129.627C95.0392 129.627 95.144 129.613 95.2466 129.583C95.3491 129.553 95.4403 129.511 95.52 129.457C95.5998 129.4 95.6636 129.331 95.7114 129.251C95.7616 129.172 95.7866 129.081 95.7866 128.978V128.305L94.8467 128.445ZM97.4033 126.507H97.9775V126.907C98.096 126.745 98.2419 126.626 98.415 126.551C98.5905 126.476 98.7853 126.438 98.9995 126.438C99.1932 126.438 99.363 126.47 99.5088 126.534C99.6546 126.598 99.7765 126.685 99.8745 126.794C99.9725 126.903 100.045 127.03 100.093 127.173C100.143 127.317 100.168 127.468 100.168 127.628V130H99.5942V127.809C99.5942 127.656 99.5749 127.527 99.5361 127.419C99.4997 127.31 99.4484 127.222 99.3823 127.156C99.3185 127.088 99.2422 127.039 99.1533 127.009C99.0667 126.977 98.9733 126.961 98.873 126.961C98.7637 126.961 98.6554 126.982 98.5483 127.023C98.4435 127.062 98.3478 127.121 98.2612 127.201C98.1769 127.28 98.1086 127.381 98.0562 127.501C98.0037 127.622 97.9775 127.765 97.9775 127.929V130H97.4033V126.507ZM101.573 128.271C101.573 128.446 101.595 128.612 101.638 128.77C101.681 128.927 101.745 129.065 101.83 129.183C101.914 129.299 102.019 129.393 102.144 129.463C102.272 129.532 102.42 129.566 102.588 129.566C102.698 129.566 102.798 129.551 102.889 129.521C102.983 129.49 103.066 129.447 103.139 129.395C103.214 129.343 103.28 129.281 103.337 129.21C103.396 129.138 103.447 129.06 103.491 128.978L103.969 129.251C103.91 129.375 103.834 129.487 103.74 129.59C103.649 129.69 103.544 129.776 103.426 129.846C103.307 129.917 103.177 129.972 103.036 130.01C102.895 130.049 102.746 130.068 102.588 130.068C102.347 130.068 102.127 130.024 101.929 129.935C101.733 129.844 101.564 129.719 101.423 129.559C101.282 129.397 101.172 129.206 101.095 128.985C101.017 128.764 100.979 128.521 100.979 128.257C100.979 127.99 101.017 127.746 101.095 127.525C101.172 127.302 101.282 127.111 101.423 126.951C101.564 126.789 101.733 126.664 101.929 126.575C102.127 126.484 102.347 126.438 102.588 126.438C102.746 126.438 102.895 126.458 103.036 126.497C103.177 126.535 103.307 126.59 103.426 126.661C103.544 126.731 103.649 126.818 103.74 126.92C103.834 127.021 103.91 127.132 103.969 127.255L103.491 127.529C103.447 127.447 103.396 127.37 103.337 127.3C103.28 127.227 103.214 127.164 103.139 127.112C103.066 127.059 102.983 127.018 102.889 126.989C102.798 126.957 102.698 126.941 102.588 126.941C102.42 126.941 102.272 126.976 102.144 127.047C102.019 127.115 101.914 127.209 101.83 127.327C101.745 127.443 101.681 127.58 101.638 127.737C101.595 127.895 101.573 128.061 101.573 128.236V128.271ZM105.128 128.431C105.139 128.595 105.172 128.747 105.227 128.886C105.282 129.025 105.356 129.146 105.449 129.248C105.545 129.348 105.657 129.427 105.784 129.484C105.914 129.539 106.058 129.566 106.215 129.566C106.409 129.566 106.578 129.534 106.724 129.47C106.872 129.404 107.008 129.322 107.131 129.224L107.425 129.638C107.268 129.763 107.085 129.867 106.878 129.949C106.673 130.028 106.443 130.068 106.188 130.068C105.935 130.068 105.706 130.024 105.5 129.935C105.295 129.844 105.12 129.719 104.974 129.559C104.831 129.397 104.72 129.206 104.643 128.985C104.565 128.762 104.526 128.519 104.526 128.257C104.526 127.99 104.564 127.746 104.639 127.525C104.717 127.302 104.825 127.111 104.964 126.951C105.103 126.789 105.269 126.664 105.463 126.575C105.657 126.484 105.872 126.438 106.109 126.438C106.339 126.438 106.546 126.484 106.731 126.575C106.916 126.664 107.073 126.789 107.203 126.951C107.333 127.111 107.432 127.302 107.5 127.525C107.571 127.746 107.606 127.988 107.606 128.25V128.431H105.128ZM106.088 126.941C105.943 126.941 105.813 126.969 105.699 127.026C105.585 127.083 105.487 127.16 105.405 127.255C105.325 127.351 105.261 127.462 105.213 127.587C105.168 127.71 105.142 127.838 105.135 127.97H106.984C106.979 127.835 106.955 127.707 106.912 127.583C106.871 127.458 106.812 127.349 106.734 127.255C106.659 127.16 106.567 127.083 106.458 127.026C106.35 126.969 106.227 126.941 106.088 126.941Z" fill="white"/>
<path d="M172.698 144.699L253.893 174.454L202.453 225.893L172.698 144.699Z" fill="url(#paint0_linear_278_1198)"/>
<circle cx="247" cy="218.001" r="43.5" fill="white" stroke="#009FE3" stroke-width="3"/>
<mask id="mask0_278_1198" style="mask-type:alpha" maskUnits="userSpaceOnUse" x="205" y="176" width="84" height="85">
<circle cx="247" cy="218.001" r="37" fill="white" stroke="#009FE3" stroke-width="10"/>
</mask>
<g mask="url(#mask0_278_1198)">
<rect x="195" y="176.001" width="107" height="97" fill="white"/>
<path d="M223.77 192.399H225.734C225.997 192.399 226.236 192.444 226.449 192.532C226.663 192.618 226.845 192.739 226.996 192.896C227.15 193.049 227.267 193.234 227.348 193.45C227.431 193.666 227.473 193.903 227.473 194.161C227.473 194.422 227.427 194.66 227.336 194.876C227.247 195.09 227.122 195.273 226.961 195.427C226.799 195.58 226.607 195.7 226.383 195.786C226.161 195.869 225.919 195.911 225.656 195.911H224.457V198.001H223.77V192.399ZM226.742 194.146C226.742 193.981 226.716 193.829 226.664 193.688C226.612 193.548 226.536 193.427 226.438 193.325C226.339 193.221 226.217 193.14 226.074 193.083C225.934 193.023 225.773 192.993 225.594 192.993H224.457V195.321H225.594C225.773 195.321 225.934 195.293 226.074 195.235C226.217 195.178 226.339 195.1 226.438 195.001C226.536 194.899 226.612 194.78 226.664 194.642C226.716 194.501 226.742 194.349 226.742 194.185V194.146ZM230.551 197.603C230.434 197.738 230.275 197.851 230.074 197.942C229.876 198.034 229.643 198.079 229.375 198.079C229.177 198.079 228.993 198.052 228.824 197.997C228.655 197.94 228.508 197.859 228.383 197.755C228.258 197.651 228.16 197.524 228.09 197.376C228.02 197.228 227.984 197.06 227.984 196.872C227.984 196.716 228.009 196.574 228.059 196.446C228.111 196.316 228.182 196.203 228.273 196.106C228.367 196.01 228.479 195.932 228.609 195.872C228.74 195.81 228.885 195.767 229.047 195.743L230.457 195.552V195.298C230.457 195.147 230.434 195.021 230.387 194.919C230.34 194.815 230.276 194.733 230.195 194.673C230.117 194.613 230.023 194.57 229.914 194.544C229.807 194.518 229.691 194.505 229.566 194.505C229.342 194.505 229.133 194.536 228.938 194.599C228.745 194.661 228.57 194.734 228.414 194.817L228.168 194.298C228.397 194.168 228.637 194.074 228.887 194.017C229.139 193.959 229.388 193.931 229.633 193.931C230.12 193.931 230.488 194.041 230.738 194.263C230.988 194.481 231.113 194.802 231.113 195.224V197.063C231.113 197.196 231.139 197.308 231.191 197.399C231.243 197.488 231.327 197.558 231.441 197.61L231.07 198.079C230.945 198.048 230.837 197.993 230.746 197.915C230.658 197.834 230.595 197.738 230.559 197.626L230.551 197.603ZM229.383 196.224C229.273 196.239 229.173 196.261 229.082 196.29C228.993 196.319 228.918 196.358 228.855 196.407C228.793 196.454 228.743 196.513 228.707 196.583C228.673 196.653 228.656 196.739 228.656 196.841C228.656 196.958 228.678 197.062 228.723 197.153C228.767 197.244 228.827 197.321 228.902 197.384C228.978 197.446 229.065 197.494 229.164 197.528C229.266 197.56 229.371 197.575 229.48 197.575C229.603 197.575 229.723 197.558 229.84 197.524C229.957 197.491 230.061 197.442 230.152 197.38C230.243 197.315 230.316 197.237 230.371 197.146C230.428 197.054 230.457 196.95 230.457 196.833V196.063L229.383 196.224ZM232.078 195.786C232.078 195.523 232.116 195.278 232.191 195.052C232.267 194.825 232.375 194.63 232.516 194.466C232.656 194.299 232.826 194.169 233.023 194.075C233.224 193.979 233.448 193.931 233.695 193.931C233.914 193.931 234.122 193.974 234.32 194.06C234.518 194.143 234.686 194.278 234.824 194.466V194.009H235.48V198.001C235.48 198.248 235.43 198.455 235.328 198.622C235.229 198.791 235.099 198.927 234.938 199.028C234.776 199.13 234.592 199.203 234.387 199.247C234.184 199.291 233.977 199.313 233.766 199.313C233.648 199.313 233.526 199.307 233.398 199.294C233.273 199.281 233.147 199.261 233.02 199.235C232.892 199.209 232.766 199.175 232.641 199.134C232.518 199.095 232.401 199.048 232.289 198.993L232.527 198.442C232.605 198.479 232.688 198.514 232.773 198.548C232.859 198.584 232.952 198.617 233.051 198.646C233.152 198.674 233.26 198.698 233.375 198.716C233.49 198.734 233.615 198.743 233.75 198.743C233.917 198.743 234.066 198.726 234.199 198.692C234.335 198.659 234.448 198.605 234.539 198.532C234.63 198.462 234.701 198.371 234.75 198.259C234.799 198.149 234.824 198.018 234.824 197.864V197.106C234.686 197.294 234.518 197.431 234.32 197.517C234.122 197.6 233.914 197.642 233.695 197.642C233.448 197.642 233.224 197.595 233.023 197.501C232.826 197.405 232.656 197.273 232.516 197.106C232.375 196.94 232.267 196.744 232.191 196.521C232.116 196.294 232.078 196.049 232.078 195.786ZM234.84 195.771C234.84 195.591 234.82 195.425 234.781 195.274C234.742 195.121 234.681 194.988 234.598 194.876C234.514 194.761 234.408 194.673 234.277 194.61C234.15 194.545 233.996 194.513 233.816 194.513C233.634 194.513 233.477 194.545 233.344 194.61C233.211 194.675 233.1 194.765 233.012 194.88C232.926 194.992 232.862 195.125 232.82 195.278C232.779 195.432 232.758 195.596 232.758 195.771V195.802C232.758 195.976 232.779 196.14 232.82 196.294C232.862 196.445 232.926 196.578 233.012 196.692C233.1 196.804 233.211 196.893 233.344 196.958C233.477 197.023 233.634 197.056 233.816 197.056C233.996 197.056 234.15 197.024 234.277 196.962C234.408 196.897 234.514 196.808 234.598 196.696C234.681 196.584 234.742 196.451 234.781 196.298C234.82 196.144 234.84 195.979 234.84 195.802V195.771ZM237.125 196.208C237.138 196.396 237.176 196.569 237.238 196.728C237.301 196.886 237.385 197.024 237.492 197.142C237.602 197.256 237.729 197.346 237.875 197.411C238.023 197.474 238.188 197.505 238.367 197.505C238.589 197.505 238.783 197.468 238.949 197.396C239.118 197.32 239.273 197.226 239.414 197.114L239.75 197.587C239.57 197.73 239.362 197.849 239.125 197.942C238.891 198.034 238.628 198.079 238.336 198.079C238.047 198.079 237.785 198.028 237.551 197.927C237.316 197.823 237.116 197.679 236.949 197.497C236.785 197.312 236.659 197.093 236.57 196.841C236.482 196.586 236.438 196.308 236.438 196.009C236.438 195.704 236.48 195.425 236.566 195.173C236.655 194.918 236.779 194.699 236.938 194.517C237.096 194.332 237.286 194.188 237.508 194.087C237.729 193.983 237.975 193.931 238.246 193.931C238.509 193.931 238.746 193.983 238.957 194.087C239.168 194.188 239.348 194.332 239.496 194.517C239.645 194.699 239.758 194.918 239.836 195.173C239.917 195.425 239.957 195.701 239.957 196.001V196.208H237.125ZM238.223 194.505C238.056 194.505 237.908 194.537 237.777 194.603C237.647 194.668 237.535 194.755 237.441 194.864C237.35 194.974 237.277 195.1 237.223 195.243C237.171 195.384 237.141 195.53 237.133 195.681H239.246C239.241 195.527 239.214 195.38 239.164 195.239C239.117 195.096 239.049 194.971 238.961 194.864C238.875 194.755 238.77 194.668 238.645 194.603C238.522 194.537 238.382 194.505 238.223 194.505ZM243.145 198.001L241.879 194.009H242.625L243.582 197.392L244.535 194.009H245.281L244.016 198.001H243.145ZM246.734 198.001H246.078V194.009H246.734V198.001ZM245.957 192.856C245.957 192.794 245.969 192.735 245.992 192.681C246.018 192.626 246.051 192.578 246.09 192.536C246.132 192.494 246.18 192.462 246.234 192.438C246.292 192.412 246.352 192.399 246.414 192.399C246.477 192.399 246.535 192.412 246.59 192.438C246.645 192.462 246.691 192.494 246.73 192.536C246.772 192.578 246.805 192.626 246.828 192.681C246.854 192.735 246.867 192.794 246.867 192.856C246.867 192.919 246.854 192.979 246.828 193.036C246.805 193.091 246.772 193.139 246.73 193.181C246.691 193.22 246.645 193.252 246.59 193.278C246.535 193.302 246.477 193.313 246.414 193.313C246.352 193.313 246.292 193.302 246.234 193.278C246.18 193.252 246.132 193.22 246.09 193.181C246.051 193.139 246.018 193.091 245.992 193.036C245.969 192.979 245.957 192.919 245.957 192.856ZM248.383 196.208C248.396 196.396 248.434 196.569 248.496 196.728C248.559 196.886 248.643 197.024 248.75 197.142C248.859 197.256 248.987 197.346 249.133 197.411C249.281 197.474 249.445 197.505 249.625 197.505C249.846 197.505 250.04 197.468 250.207 197.396C250.376 197.32 250.531 197.226 250.672 197.114L251.008 197.587C250.828 197.73 250.62 197.849 250.383 197.942C250.148 198.034 249.885 198.079 249.594 198.079C249.305 198.079 249.043 198.028 248.809 197.927C248.574 197.823 248.374 197.679 248.207 197.497C248.043 197.312 247.917 197.093 247.828 196.841C247.74 196.586 247.695 196.308 247.695 196.009C247.695 195.704 247.738 195.425 247.824 195.173C247.913 194.918 248.036 194.699 248.195 194.517C248.354 194.332 248.544 194.188 248.766 194.087C248.987 193.983 249.233 193.931 249.504 193.931C249.767 193.931 250.004 193.983 250.215 194.087C250.426 194.188 250.605 194.332 250.754 194.517C250.902 194.699 251.016 194.918 251.094 195.173C251.174 195.425 251.215 195.701 251.215 196.001V196.208H248.383ZM249.48 194.505C249.314 194.505 249.165 194.537 249.035 194.603C248.905 194.668 248.793 194.755 248.699 194.864C248.608 194.974 248.535 195.1 248.48 195.243C248.428 195.384 248.398 195.53 248.391 195.681H250.504C250.499 195.527 250.471 195.38 250.422 195.239C250.375 195.096 250.307 194.971 250.219 194.864C250.133 194.755 250.027 194.668 249.902 194.603C249.78 194.537 249.639 194.505 249.48 194.505ZM255.586 197.224L256.309 194.009H257.004L256.027 198.001H255.188L254.379 194.802L253.555 198.001H252.746L251.777 194.009H252.484L253.18 197.224L254.02 194.009H254.762L255.586 197.224ZM260.523 196.896C260.523 197.083 260.482 197.251 260.398 197.399C260.318 197.545 260.21 197.669 260.074 197.771C259.939 197.872 259.783 197.949 259.605 198.001C259.431 198.053 259.251 198.079 259.066 198.079C258.775 198.079 258.493 198.03 258.223 197.931C257.954 197.829 257.716 197.685 257.508 197.497L257.867 197.032C257.93 197.087 258.001 197.144 258.082 197.204C258.165 197.264 258.258 197.32 258.359 197.372C258.461 197.422 258.57 197.463 258.688 197.497C258.805 197.528 258.928 197.544 259.059 197.544C259.165 197.544 259.267 197.531 259.363 197.505C259.462 197.476 259.548 197.436 259.621 197.384C259.694 197.329 259.751 197.265 259.793 197.192C259.837 197.117 259.859 197.032 259.859 196.938C259.859 196.834 259.836 196.747 259.789 196.677C259.745 196.606 259.684 196.547 259.605 196.497C259.527 196.448 259.436 196.405 259.332 196.368C259.228 196.332 259.118 196.295 259.004 196.259L258.754 196.177C258.613 196.13 258.478 196.076 258.348 196.017C258.217 195.957 258.102 195.884 258 195.798C257.901 195.709 257.822 195.605 257.762 195.485C257.704 195.366 257.676 195.222 257.676 195.056C257.676 194.92 257.704 194.786 257.762 194.653C257.819 194.518 257.906 194.397 258.023 194.29C258.143 194.183 258.294 194.097 258.477 194.032C258.659 193.965 258.874 193.931 259.121 193.931C259.395 193.931 259.647 193.976 259.879 194.067C260.113 194.159 260.311 194.272 260.473 194.407L260.129 194.88C260.072 194.825 260.004 194.773 259.926 194.724C259.848 194.674 259.764 194.631 259.676 194.595C259.587 194.556 259.495 194.524 259.398 194.501C259.302 194.478 259.207 194.466 259.113 194.466C258.97 194.466 258.849 194.483 258.75 194.517C258.651 194.548 258.572 194.59 258.512 194.642C258.452 194.694 258.408 194.752 258.379 194.817C258.353 194.882 258.34 194.946 258.34 195.009C258.34 195.1 258.359 195.177 258.398 195.239C258.438 195.299 258.488 195.351 258.551 195.396C258.616 195.44 258.689 195.478 258.77 195.509C258.853 195.54 258.939 195.571 259.027 195.603L259.355 195.712C259.512 195.764 259.655 195.82 259.785 195.88C259.915 195.937 260.03 196.004 260.129 196.079C260.254 196.178 260.35 196.293 260.418 196.423C260.488 196.553 260.523 196.711 260.523 196.896ZM261.531 197.626C261.531 197.563 261.543 197.505 261.566 197.45C261.592 197.393 261.625 197.345 261.664 197.306C261.706 197.264 261.754 197.231 261.809 197.208C261.863 197.182 261.922 197.169 261.984 197.169C262.047 197.169 262.105 197.182 262.16 197.208C262.217 197.231 262.266 197.264 262.305 197.306C262.346 197.345 262.379 197.393 262.402 197.45C262.428 197.505 262.441 197.563 262.441 197.626C262.441 197.688 262.428 197.747 262.402 197.802C262.379 197.856 262.346 197.905 262.305 197.946C262.266 197.985 262.217 198.017 262.16 198.04C262.105 198.066 262.047 198.079 261.984 198.079C261.922 198.079 261.863 198.066 261.809 198.04C261.754 198.017 261.706 197.985 261.664 197.946C261.625 197.905 261.592 197.856 261.566 197.802C261.543 197.747 261.531 197.688 261.531 197.626ZM261.531 194.466C261.531 194.403 261.543 194.345 261.566 194.29C261.592 194.233 261.625 194.185 261.664 194.146C261.706 194.104 261.754 194.071 261.809 194.048C261.863 194.022 261.922 194.009 261.984 194.009C262.047 194.009 262.105 194.022 262.16 194.048C262.217 194.071 262.266 194.104 262.305 194.146C262.346 194.185 262.379 194.233 262.402 194.29C262.428 194.345 262.441 194.403 262.441 194.466C262.441 194.528 262.428 194.587 262.402 194.642C262.379 194.696 262.346 194.744 262.305 194.786C262.266 194.828 262.217 194.862 262.16 194.888C262.105 194.911 262.047 194.923 261.984 194.923C261.922 194.923 261.863 194.911 261.809 194.888C261.754 194.862 261.706 194.828 261.664 194.786C261.625 194.744 261.592 194.696 261.566 194.642C261.543 194.587 261.531 194.528 261.531 194.466Z" fill="#0B0C0C"/>
<path d="M223.754 243.704C223.999 243.978 224.262 244.175 224.543 244.298C224.827 244.42 225.124 244.481 225.434 244.481C225.647 244.481 225.837 244.455 226.004 244.403C226.173 244.349 226.315 244.274 226.43 244.181C226.544 244.087 226.63 243.98 226.688 243.86C226.747 243.741 226.777 243.614 226.777 243.481C226.777 243.294 226.738 243.143 226.66 243.028C226.582 242.914 226.479 242.821 226.352 242.751C226.224 242.678 226.076 242.622 225.906 242.583C225.74 242.541 225.565 242.502 225.383 242.466L225.305 242.45C225.182 242.427 225.055 242.402 224.922 242.376C224.792 242.35 224.663 242.316 224.535 242.274C224.408 242.23 224.284 242.178 224.164 242.118C224.044 242.056 223.939 241.979 223.848 241.888C223.725 241.776 223.624 241.639 223.543 241.478C223.465 241.313 223.426 241.112 223.426 240.872C223.426 240.703 223.462 240.527 223.535 240.345C223.611 240.162 223.729 239.996 223.891 239.845C224.055 239.694 224.263 239.57 224.516 239.474C224.768 239.377 225.074 239.329 225.434 239.329C225.832 239.329 226.199 239.401 226.535 239.544C226.673 239.604 226.805 239.675 226.93 239.759C227.057 239.84 227.182 239.941 227.305 240.063L226.785 240.489C226.592 240.297 226.372 240.156 226.125 240.067C225.878 239.976 225.625 239.931 225.367 239.931C225.182 239.931 225.013 239.953 224.859 239.997C224.708 240.041 224.578 240.105 224.469 240.188C224.359 240.272 224.275 240.368 224.215 240.478C224.158 240.587 224.129 240.705 224.129 240.833C224.129 241.01 224.167 241.153 224.242 241.263C224.32 241.372 224.422 241.461 224.547 241.528C224.672 241.593 224.812 241.644 224.969 241.681C225.128 241.717 225.288 241.752 225.449 241.786L225.488 241.794C225.749 241.846 226 241.907 226.242 241.978C226.487 242.045 226.699 242.14 226.879 242.263C227.061 242.382 227.207 242.535 227.316 242.72C227.426 242.902 227.48 243.138 227.48 243.427C227.48 243.632 227.438 243.836 227.352 244.036C227.266 244.237 227.137 244.415 226.965 244.571C226.796 244.725 226.582 244.849 226.324 244.942C226.066 245.034 225.763 245.079 225.414 245.079C225.143 245.079 224.893 245.05 224.664 244.993C224.435 244.933 224.224 244.856 224.031 244.763C223.888 244.687 223.749 244.6 223.613 244.501C223.48 244.402 223.348 244.284 223.215 244.146L223.754 243.704ZM228.859 243.208C228.872 243.396 228.91 243.569 228.973 243.728C229.035 243.886 229.12 244.024 229.227 244.142C229.336 244.256 229.464 244.346 229.609 244.411C229.758 244.474 229.922 244.505 230.102 244.505C230.323 244.505 230.517 244.468 230.684 244.396C230.853 244.32 231.008 244.226 231.148 244.114L231.484 244.587C231.305 244.73 231.096 244.849 230.859 244.942C230.625 245.034 230.362 245.079 230.07 245.079C229.781 245.079 229.52 245.028 229.285 244.927C229.051 244.823 228.85 244.679 228.684 244.497C228.52 244.312 228.393 244.093 228.305 243.841C228.216 243.586 228.172 243.308 228.172 243.009C228.172 242.704 228.215 242.425 228.301 242.173C228.389 241.918 228.513 241.699 228.672 241.517C228.831 241.332 229.021 241.188 229.242 241.087C229.464 240.983 229.71 240.931 229.98 240.931C230.243 240.931 230.48 240.983 230.691 241.087C230.902 241.188 231.082 241.332 231.23 241.517C231.379 241.699 231.492 241.918 231.57 242.173C231.651 242.425 231.691 242.701 231.691 243.001V243.208H228.859ZM229.957 241.505C229.79 241.505 229.642 241.537 229.512 241.603C229.382 241.668 229.27 241.755 229.176 241.864C229.085 241.974 229.012 242.1 228.957 242.243C228.905 242.384 228.875 242.53 228.867 242.681H230.98C230.975 242.527 230.948 242.38 230.898 242.239C230.852 242.096 230.784 241.971 230.695 241.864C230.609 241.755 230.504 241.668 230.379 241.603C230.257 241.537 230.116 241.505 229.957 241.505ZM234.879 244.603C234.762 244.738 234.603 244.851 234.402 244.942C234.204 245.034 233.971 245.079 233.703 245.079C233.505 245.079 233.322 245.052 233.152 244.997C232.983 244.94 232.836 244.859 232.711 244.755C232.586 244.651 232.488 244.524 232.418 244.376C232.348 244.228 232.312 244.06 232.312 243.872C232.312 243.716 232.337 243.574 232.387 243.446C232.439 243.316 232.51 243.203 232.602 243.106C232.695 243.01 232.807 242.932 232.938 242.872C233.068 242.81 233.214 242.767 233.375 242.743L234.785 242.552V242.298C234.785 242.147 234.762 242.021 234.715 241.919C234.668 241.815 234.604 241.733 234.523 241.673C234.445 241.613 234.352 241.57 234.242 241.544C234.135 241.518 234.02 241.505 233.895 241.505C233.671 241.505 233.461 241.536 233.266 241.599C233.073 241.661 232.898 241.734 232.742 241.817L232.496 241.298C232.725 241.168 232.965 241.074 233.215 241.017C233.467 240.959 233.716 240.931 233.961 240.931C234.448 240.931 234.816 241.041 235.066 241.263C235.316 241.481 235.441 241.802 235.441 242.224V244.063C235.441 244.196 235.467 244.308 235.52 244.399C235.572 244.488 235.655 244.558 235.77 244.61L235.398 245.079C235.273 245.048 235.165 244.993 235.074 244.915C234.986 244.834 234.923 244.738 234.887 244.626L234.879 244.603ZM233.711 243.224C233.602 243.239 233.501 243.261 233.41 243.29C233.322 243.319 233.246 243.358 233.184 243.407C233.121 243.454 233.072 243.513 233.035 243.583C233.001 243.653 232.984 243.739 232.984 243.841C232.984 243.958 233.007 244.062 233.051 244.153C233.095 244.244 233.155 244.321 233.23 244.384C233.306 244.446 233.393 244.494 233.492 244.528C233.594 244.56 233.699 244.575 233.809 244.575C233.931 244.575 234.051 244.558 234.168 244.524C234.285 244.491 234.389 244.442 234.48 244.38C234.572 244.315 234.645 244.237 234.699 244.146C234.757 244.054 234.785 243.95 234.785 243.833V243.063L233.711 243.224ZM238.672 241.595H238.566C238.397 241.595 238.236 241.614 238.082 241.653C237.928 241.692 237.793 241.763 237.676 241.864C237.559 241.966 237.465 242.105 237.395 242.282C237.324 242.457 237.289 242.681 237.289 242.954V245.001H236.633V241.009H237.289V241.642C237.339 241.524 237.405 241.422 237.488 241.333C237.572 241.244 237.665 241.172 237.77 241.114C237.876 241.054 237.99 241.01 238.109 240.981C238.232 240.953 238.355 240.938 238.48 240.938H238.672V241.595ZM239.781 243.024C239.781 243.225 239.806 243.415 239.855 243.595C239.905 243.774 239.978 243.932 240.074 244.067C240.171 244.2 240.29 244.307 240.434 244.388C240.579 244.466 240.749 244.505 240.941 244.505C241.066 244.505 241.181 244.488 241.285 244.454C241.392 244.418 241.487 244.369 241.57 244.31C241.656 244.25 241.732 244.179 241.797 244.099C241.865 244.015 241.923 243.927 241.973 243.833L242.52 244.146C242.452 244.286 242.365 244.415 242.258 244.532C242.154 244.647 242.034 244.744 241.898 244.825C241.763 244.906 241.615 244.968 241.453 245.013C241.292 245.057 241.121 245.079 240.941 245.079C240.665 245.079 240.414 245.028 240.188 244.927C239.964 244.823 239.771 244.679 239.609 244.497C239.448 244.312 239.323 244.093 239.234 243.841C239.146 243.588 239.102 243.311 239.102 243.009C239.102 242.704 239.146 242.425 239.234 242.173C239.323 241.918 239.448 241.699 239.609 241.517C239.771 241.332 239.964 241.188 240.188 241.087C240.414 240.983 240.665 240.931 240.941 240.931C241.121 240.931 241.292 240.953 241.453 240.997C241.615 241.041 241.763 241.104 241.898 241.185C242.034 241.265 242.154 241.364 242.258 241.481C242.365 241.596 242.452 241.724 242.52 241.864L241.973 242.177C241.923 242.083 241.865 241.996 241.797 241.915C241.732 241.832 241.656 241.76 241.57 241.7C241.487 241.64 241.392 241.593 241.285 241.56C241.181 241.523 241.066 241.505 240.941 241.505C240.749 241.505 240.579 241.545 240.434 241.626C240.29 241.704 240.171 241.811 240.074 241.946C239.978 242.079 239.905 242.235 239.855 242.415C239.806 242.595 239.781 242.785 239.781 242.985V243.024ZM243.438 239.399H244.094V241.466C244.229 241.281 244.396 241.146 244.594 241.06C244.794 240.974 245.017 240.931 245.262 240.931C245.483 240.931 245.677 240.967 245.844 241.04C246.01 241.113 246.15 241.212 246.262 241.337C246.374 241.462 246.457 241.606 246.512 241.771C246.569 241.935 246.598 242.108 246.598 242.29V245.001H245.941V242.497C245.941 242.323 245.919 242.174 245.875 242.052C245.833 241.927 245.775 241.826 245.699 241.751C245.626 241.673 245.539 241.617 245.438 241.583C245.339 241.547 245.232 241.528 245.117 241.528C244.992 241.528 244.868 241.552 244.746 241.599C244.624 241.643 244.514 241.711 244.418 241.802C244.322 241.893 244.243 242.007 244.184 242.146C244.124 242.284 244.094 242.446 244.094 242.634V245.001H243.438V239.399ZM248.211 243.208C248.224 243.396 248.262 243.569 248.324 243.728C248.387 243.886 248.471 244.024 248.578 244.142C248.688 244.256 248.815 244.346 248.961 244.411C249.109 244.474 249.273 244.505 249.453 244.505C249.674 244.505 249.868 244.468 250.035 244.396C250.204 244.32 250.359 244.226 250.5 244.114L250.836 244.587C250.656 244.73 250.448 244.849 250.211 244.942C249.977 245.034 249.714 245.079 249.422 245.079C249.133 245.079 248.871 245.028 248.637 244.927C248.402 244.823 248.202 244.679 248.035 244.497C247.871 244.312 247.745 244.093 247.656 243.841C247.568 243.586 247.523 243.308 247.523 243.009C247.523 242.704 247.566 242.425 247.652 242.173C247.741 241.918 247.865 241.699 248.023 241.517C248.182 241.332 248.372 241.188 248.594 241.087C248.815 240.983 249.061 240.931 249.332 240.931C249.595 240.931 249.832 240.983 250.043 241.087C250.254 241.188 250.434 241.332 250.582 241.517C250.73 241.699 250.844 241.918 250.922 242.173C251.003 242.425 251.043 242.701 251.043 243.001V243.208H248.211ZM249.309 241.505C249.142 241.505 248.993 241.537 248.863 241.603C248.733 241.668 248.621 241.755 248.527 241.864C248.436 241.974 248.363 242.1 248.309 242.243C248.257 242.384 248.227 242.53 248.219 242.681H250.332C250.327 242.527 250.299 242.38 250.25 242.239C250.203 242.096 250.135 241.971 250.047 241.864C249.961 241.755 249.855 241.668 249.73 241.603C249.608 241.537 249.467 241.505 249.309 241.505ZM254.633 243.896C254.633 244.083 254.591 244.251 254.508 244.399C254.427 244.545 254.319 244.669 254.184 244.771C254.048 244.872 253.892 244.949 253.715 245.001C253.54 245.053 253.361 245.079 253.176 245.079C252.884 245.079 252.603 245.03 252.332 244.931C252.064 244.829 251.826 244.685 251.617 244.497L251.977 244.032C252.039 244.087 252.111 244.144 252.191 244.204C252.275 244.264 252.367 244.32 252.469 244.372C252.57 244.422 252.68 244.463 252.797 244.497C252.914 244.528 253.038 244.544 253.168 244.544C253.275 244.544 253.376 244.531 253.473 244.505C253.572 244.476 253.658 244.436 253.73 244.384C253.803 244.329 253.861 244.265 253.902 244.192C253.947 244.117 253.969 244.032 253.969 243.938C253.969 243.834 253.945 243.747 253.898 243.677C253.854 243.606 253.793 243.547 253.715 243.497C253.637 243.448 253.546 243.405 253.441 243.368C253.337 243.332 253.228 243.295 253.113 243.259L252.863 243.177C252.723 243.13 252.587 243.076 252.457 243.017C252.327 242.957 252.211 242.884 252.109 242.798C252.01 242.709 251.931 242.605 251.871 242.485C251.814 242.366 251.785 242.222 251.785 242.056C251.785 241.92 251.814 241.786 251.871 241.653C251.928 241.518 252.016 241.397 252.133 241.29C252.253 241.183 252.404 241.097 252.586 241.032C252.768 240.965 252.983 240.931 253.23 240.931C253.504 240.931 253.757 240.976 253.988 241.067C254.223 241.159 254.421 241.272 254.582 241.407L254.238 241.88C254.181 241.825 254.113 241.773 254.035 241.724C253.957 241.674 253.874 241.631 253.785 241.595C253.697 241.556 253.604 241.524 253.508 241.501C253.411 241.478 253.316 241.466 253.223 241.466C253.079 241.466 252.958 241.483 252.859 241.517C252.76 241.548 252.681 241.59 252.621 241.642C252.561 241.694 252.517 241.752 252.488 241.817C252.462 241.882 252.449 241.946 252.449 242.009C252.449 242.1 252.469 242.177 252.508 242.239C252.547 242.299 252.598 242.351 252.66 242.396C252.725 242.44 252.798 242.478 252.879 242.509C252.962 242.54 253.048 242.571 253.137 242.603L253.465 242.712C253.621 242.764 253.764 242.82 253.895 242.88C254.025 242.937 254.139 243.004 254.238 243.079C254.363 243.178 254.46 243.293 254.527 243.423C254.598 243.553 254.633 243.711 254.633 243.896ZM258.043 241.009H258.836V241.587H258.043V245.001H257.387V241.587H256.723V241.009H257.387V240.267C257.387 240.095 257.414 239.949 257.469 239.829C257.523 239.709 257.599 239.613 257.695 239.54C257.794 239.465 257.91 239.411 258.043 239.38C258.178 239.346 258.326 239.329 258.484 239.329C258.646 239.329 258.78 239.337 258.887 239.353C258.993 239.366 259.073 239.376 259.125 239.384L259.074 239.946C259.035 239.944 258.99 239.94 258.938 239.935C258.888 239.929 258.836 239.925 258.781 239.923C258.729 239.92 258.678 239.918 258.629 239.915C258.579 239.912 258.539 239.911 258.508 239.911C258.414 239.911 258.337 239.925 258.277 239.954C258.217 239.98 258.169 240.015 258.133 240.06C258.099 240.104 258.076 240.155 258.062 240.212C258.049 240.269 258.043 240.329 258.043 240.392V241.009ZM261.703 241.595H261.598C261.428 241.595 261.267 241.614 261.113 241.653C260.96 241.692 260.824 241.763 260.707 241.864C260.59 241.966 260.496 242.105 260.426 242.282C260.355 242.457 260.32 242.681 260.32 242.954V245.001H259.664V241.009H260.32V241.642C260.37 241.524 260.436 241.422 260.52 241.333C260.603 241.244 260.697 241.172 260.801 241.114C260.908 241.054 261.021 241.01 261.141 240.981C261.263 240.953 261.387 240.938 261.512 240.938H261.703V241.595ZM263.973 240.931C264.249 240.931 264.5 240.983 264.727 241.087C264.953 241.188 265.146 241.332 265.305 241.517C265.466 241.699 265.591 241.918 265.68 242.173C265.768 242.425 265.812 242.704 265.812 243.009C265.812 243.308 265.768 243.586 265.68 243.841C265.591 244.093 265.466 244.312 265.305 244.497C265.146 244.679 264.953 244.823 264.727 244.927C264.5 245.028 264.249 245.079 263.973 245.079C263.697 245.079 263.445 245.028 263.219 244.927C262.995 244.823 262.802 244.679 262.641 244.497C262.479 244.312 262.354 244.093 262.266 243.841C262.177 243.586 262.133 243.308 262.133 243.009C262.133 242.704 262.177 242.425 262.266 242.173C262.354 241.918 262.479 241.699 262.641 241.517C262.802 241.332 262.995 241.188 263.219 241.087C263.445 240.983 263.697 240.931 263.973 240.931ZM263.973 244.505C264.163 244.505 264.329 244.466 264.473 244.388C264.618 244.307 264.74 244.199 264.836 244.063C264.935 243.928 265.009 243.772 265.059 243.595C265.108 243.415 265.133 243.228 265.133 243.032V242.985C265.133 242.785 265.108 242.595 265.059 242.415C265.009 242.235 264.935 242.079 264.836 241.946C264.74 241.811 264.618 241.704 264.473 241.626C264.329 241.545 264.163 241.505 263.973 241.505C263.783 241.505 263.615 241.545 263.469 241.626C263.326 241.704 263.204 241.811 263.105 241.946C263.009 242.079 262.936 242.235 262.887 242.415C262.837 242.595 262.812 242.785 262.812 242.985V243.032C262.812 243.228 262.837 243.415 262.887 243.595C262.936 243.772 263.009 243.928 263.105 244.063C263.204 244.199 263.326 244.307 263.469 244.388C263.615 244.466 263.783 244.505 263.973 244.505ZM269.766 245.001H269.109V242.489C269.109 242.312 269.087 242.162 269.043 242.04C269.001 241.918 268.944 241.819 268.871 241.743C268.801 241.668 268.716 241.613 268.617 241.579C268.521 241.545 268.418 241.528 268.309 241.528C268.199 241.528 268.091 241.55 267.984 241.595C267.88 241.636 267.786 241.703 267.703 241.794C267.622 241.885 267.556 242.001 267.504 242.142C267.454 242.28 267.43 242.446 267.43 242.642V245.001H266.773V241.009H267.43V241.466C267.562 241.281 267.716 241.146 267.891 241.06C268.068 240.974 268.263 240.931 268.477 240.931C268.565 240.931 268.661 240.944 268.766 240.97C268.87 240.993 268.971 241.031 269.07 241.083C269.172 241.135 269.264 241.204 269.348 241.29C269.434 241.373 269.503 241.475 269.555 241.595C269.628 241.472 269.711 241.369 269.805 241.286C269.901 241.2 270.001 241.131 270.105 241.079C270.212 241.027 270.322 240.989 270.434 240.966C270.548 240.942 270.661 240.931 270.773 240.931C270.99 240.931 271.181 240.967 271.348 241.04C271.514 241.113 271.655 241.211 271.77 241.333C271.884 241.455 271.97 241.597 272.027 241.759C272.087 241.92 272.117 242.09 272.117 242.267V245.001H271.461V242.489C271.461 242.312 271.439 242.162 271.395 242.04C271.35 241.918 271.29 241.819 271.215 241.743C271.139 241.668 271.052 241.613 270.953 241.579C270.854 241.545 270.751 241.528 270.645 241.528C270.535 241.528 270.427 241.55 270.32 241.595C270.216 241.636 270.122 241.703 270.039 241.794C269.958 241.885 269.892 242.001 269.84 242.142C269.79 242.28 269.766 242.446 269.766 242.642V245.001ZM275.547 241.009V241.466C275.664 241.302 275.823 241.172 276.023 241.075C276.224 240.979 276.454 240.931 276.715 240.931C276.973 240.931 277.206 240.983 277.414 241.087C277.622 241.188 277.801 241.332 277.949 241.517C278.098 241.701 278.211 241.922 278.289 242.177C278.37 242.429 278.41 242.707 278.41 243.009C278.41 243.311 278.37 243.588 278.289 243.841C278.211 244.093 278.098 244.312 277.949 244.497C277.801 244.679 277.622 244.823 277.414 244.927C277.206 245.028 276.973 245.079 276.715 245.079C276.454 245.079 276.224 245.031 276.023 244.935C275.823 244.838 275.664 244.708 275.547 244.544V246.216H274.891V241.009H275.547ZM277.73 242.985C277.73 242.777 277.706 242.583 277.656 242.403C277.607 242.224 277.534 242.069 277.438 241.938C277.341 241.806 277.221 241.701 277.078 241.626C276.938 241.55 276.776 241.513 276.594 241.513C276.419 241.513 276.266 241.543 276.133 241.603C276.003 241.662 275.893 241.744 275.805 241.849C275.716 241.953 275.648 242.076 275.602 242.22C275.557 242.36 275.535 242.514 275.535 242.681V243.329C275.535 243.496 275.557 243.651 275.602 243.794C275.648 243.935 275.716 244.057 275.805 244.161C275.893 244.265 276.003 244.347 276.133 244.407C276.266 244.467 276.419 244.497 276.594 244.497C276.776 244.497 276.938 244.459 277.078 244.384C277.221 244.308 277.341 244.205 277.438 244.075C277.534 243.942 277.607 243.786 277.656 243.606C277.706 243.427 277.73 243.233 277.73 243.024V242.985ZM281.652 244.603C281.535 244.738 281.376 244.851 281.176 244.942C280.978 245.034 280.745 245.079 280.477 245.079C280.279 245.079 280.095 245.052 279.926 244.997C279.757 244.94 279.609 244.859 279.484 244.755C279.359 244.651 279.262 244.524 279.191 244.376C279.121 244.228 279.086 244.06 279.086 243.872C279.086 243.716 279.111 243.574 279.16 243.446C279.212 243.316 279.284 243.203 279.375 243.106C279.469 243.01 279.581 242.932 279.711 242.872C279.841 242.81 279.987 242.767 280.148 242.743L281.559 242.552V242.298C281.559 242.147 281.535 242.021 281.488 241.919C281.441 241.815 281.378 241.733 281.297 241.673C281.219 241.613 281.125 241.57 281.016 241.544C280.909 241.518 280.793 241.505 280.668 241.505C280.444 241.505 280.234 241.536 280.039 241.599C279.846 241.661 279.672 241.734 279.516 241.817L279.27 241.298C279.499 241.168 279.738 241.074 279.988 241.017C280.241 240.959 280.49 240.931 280.734 240.931C281.221 240.931 281.59 241.041 281.84 241.263C282.09 241.481 282.215 241.802 282.215 242.224V244.063C282.215 244.196 282.241 244.308 282.293 244.399C282.345 244.488 282.428 244.558 282.543 244.61L282.172 245.079C282.047 245.048 281.939 244.993 281.848 244.915C281.759 244.834 281.697 244.738 281.66 244.626L281.652 244.603ZM280.484 243.224C280.375 243.239 280.275 243.261 280.184 243.29C280.095 243.319 280.02 243.358 279.957 243.407C279.895 243.454 279.845 243.513 279.809 243.583C279.775 243.653 279.758 243.739 279.758 243.841C279.758 243.958 279.78 244.062 279.824 244.153C279.868 244.244 279.928 244.321 280.004 244.384C280.079 244.446 280.167 244.494 280.266 244.528C280.367 244.56 280.473 244.575 280.582 244.575C280.704 244.575 280.824 244.558 280.941 244.524C281.059 244.491 281.163 244.442 281.254 244.38C281.345 244.315 281.418 244.237 281.473 244.146C281.53 244.054 281.559 243.95 281.559 243.833V243.063L280.484 243.224ZM283.18 242.786C283.18 242.523 283.217 242.278 283.293 242.052C283.368 241.825 283.477 241.63 283.617 241.466C283.758 241.299 283.927 241.169 284.125 241.075C284.326 240.979 284.549 240.931 284.797 240.931C285.016 240.931 285.224 240.974 285.422 241.06C285.62 241.143 285.788 241.278 285.926 241.466V241.009H286.582V245.001C286.582 245.248 286.531 245.455 286.43 245.622C286.331 245.791 286.201 245.927 286.039 246.028C285.878 246.13 285.694 246.203 285.488 246.247C285.285 246.291 285.078 246.313 284.867 246.313C284.75 246.313 284.628 246.307 284.5 246.294C284.375 246.281 284.249 246.261 284.121 246.235C283.993 246.209 283.867 246.175 283.742 246.134C283.62 246.095 283.503 246.048 283.391 245.993L283.629 245.442C283.707 245.479 283.789 245.514 283.875 245.548C283.961 245.584 284.053 245.617 284.152 245.646C284.254 245.674 284.362 245.698 284.477 245.716C284.591 245.734 284.716 245.743 284.852 245.743C285.018 245.743 285.168 245.726 285.301 245.692C285.436 245.659 285.549 245.605 285.641 245.532C285.732 245.462 285.802 245.371 285.852 245.259C285.901 245.149 285.926 245.018 285.926 244.864V244.106C285.788 244.294 285.62 244.431 285.422 244.517C285.224 244.6 285.016 244.642 284.797 244.642C284.549 244.642 284.326 244.595 284.125 244.501C283.927 244.405 283.758 244.273 283.617 244.106C283.477 243.94 283.368 243.744 283.293 243.521C283.217 243.294 283.18 243.049 283.18 242.786ZM285.941 242.771C285.941 242.591 285.922 242.425 285.883 242.274C285.844 242.121 285.783 241.988 285.699 241.876C285.616 241.761 285.509 241.673 285.379 241.61C285.251 241.545 285.098 241.513 284.918 241.513C284.736 241.513 284.578 241.545 284.445 241.61C284.312 241.675 284.202 241.765 284.113 241.88C284.027 241.992 283.964 242.125 283.922 242.278C283.88 242.432 283.859 242.596 283.859 242.771V242.802C283.859 242.976 283.88 243.14 283.922 243.294C283.964 243.445 284.027 243.578 284.113 243.692C284.202 243.804 284.312 243.893 284.445 243.958C284.578 244.023 284.736 244.056 284.918 244.056C285.098 244.056 285.251 244.024 285.379 243.962C285.509 243.897 285.616 243.808 285.699 243.696C285.783 243.584 285.844 243.451 285.883 243.298C285.922 243.144 285.941 242.979 285.941 242.802V242.771ZM288.227 243.208C288.24 243.396 288.277 243.569 288.34 243.728C288.402 243.886 288.487 244.024 288.594 244.142C288.703 244.256 288.831 244.346 288.977 244.411C289.125 244.474 289.289 244.505 289.469 244.505C289.69 244.505 289.884 244.468 290.051 244.396C290.22 244.32 290.375 244.226 290.516 244.114L290.852 244.587C290.672 244.73 290.464 244.849 290.227 244.942C289.992 245.034 289.729 245.079 289.438 245.079C289.148 245.079 288.887 245.028 288.652 244.927C288.418 244.823 288.217 244.679 288.051 244.497C287.887 244.312 287.76 244.093 287.672 243.841C287.583 243.586 287.539 243.308 287.539 243.009C287.539 242.704 287.582 242.425 287.668 242.173C287.757 241.918 287.88 241.699 288.039 241.517C288.198 241.332 288.388 241.188 288.609 241.087C288.831 240.983 289.077 240.931 289.348 240.931C289.611 240.931 289.848 240.983 290.059 241.087C290.27 241.188 290.449 241.332 290.598 241.517C290.746 241.699 290.859 241.918 290.938 242.173C291.018 242.425 291.059 242.701 291.059 243.001V243.208H288.227ZM289.324 241.505C289.158 241.505 289.009 241.537 288.879 241.603C288.749 241.668 288.637 241.755 288.543 241.864C288.452 241.974 288.379 242.1 288.324 242.243C288.272 242.384 288.242 242.53 288.234 242.681H290.348C290.342 242.527 290.315 242.38 290.266 242.239C290.219 242.096 290.151 241.971 290.062 241.864C289.977 241.755 289.871 241.668 289.746 241.603C289.624 241.537 289.483 241.505 289.324 241.505ZM291.977 244.626C291.977 244.563 291.988 244.505 292.012 244.45C292.038 244.393 292.07 244.345 292.109 244.306C292.151 244.264 292.199 244.231 292.254 244.208C292.309 244.182 292.367 244.169 292.43 244.169C292.492 244.169 292.551 244.182 292.605 244.208C292.663 244.231 292.711 244.264 292.75 244.306C292.792 244.345 292.824 244.393 292.848 244.45C292.874 244.505 292.887 244.563 292.887 244.626C292.887 244.688 292.874 244.747 292.848 244.802C292.824 244.856 292.792 244.905 292.75 244.946C292.711 244.985 292.663 245.017 292.605 245.04C292.551 245.066 292.492 245.079 292.43 245.079C292.367 245.079 292.309 245.066 292.254 245.04C292.199 245.017 292.151 244.985 292.109 244.946C292.07 244.905 292.038 244.856 292.012 244.802C291.988 244.747 291.977 244.688 291.977 244.626ZM291.977 241.466C291.977 241.403 291.988 241.345 292.012 241.29C292.038 241.233 292.07 241.185 292.109 241.146C292.151 241.104 292.199 241.071 292.254 241.048C292.309 241.022 292.367 241.009 292.43 241.009C292.492 241.009 292.551 241.022 292.605 241.048C292.663 241.071 292.711 241.104 292.75 241.146C292.792 241.185 292.824 241.233 292.848 241.29C292.874 241.345 292.887 241.403 292.887 241.466C292.887 241.528 292.874 241.587 292.848 241.642C292.824 241.696 292.792 241.744 292.75 241.786C292.711 241.828 292.663 241.862 292.605 241.888C292.551 241.911 292.492 241.923 292.43 241.923C292.367 241.923 292.309 241.911 292.254 241.888C292.199 241.862 292.151 241.828 292.109 241.786C292.07 241.744 292.038 241.696 292.012 241.642C291.988 241.587 291.977 241.528 291.977 241.466Z" fill="#0B0C0C"/>
<path d="M227.374 204.101V204.344C227.374 206.207 226.834 207.044 224.566 207.044H223.81V210.5H227.239V223.001H231.154V204.101H227.374ZM237.091 218.222C235.714 218.222 234.553 219.383 234.553 220.733C234.553 222.245 235.606 223.136 237.172 223.136V223.217C237.172 223.568 237.037 224 236.146 224.243C235.849 224.324 235.471 224.405 235.012 224.486L235.147 225.728C238.792 225.728 239.926 223.487 239.926 221.408C239.926 219.653 238.819 218.222 237.091 218.222ZM249.913 203.831C246.376 203.831 243.001 205.613 243.001 209.231C243.001 210.554 243.703 212.282 245.593 213.146C243.433 214.01 242.461 215.819 242.461 217.547C242.461 221.516 246.133 223.271 249.913 223.271C253.72 223.271 257.365 221.516 257.365 217.547C257.365 215.819 256.42 214.01 254.233 213.146C256.15 212.282 256.825 210.554 256.825 209.231C256.825 205.505 253.45 203.831 249.913 203.831ZM249.913 211.688C248.131 211.688 246.943 210.878 246.943 209.366C246.943 207.935 248.185 207.071 249.913 207.071C251.641 207.071 252.883 207.935 252.883 209.366C252.883 210.878 251.695 211.688 249.913 211.688ZM249.913 220.031C247.915 220.031 246.511 219.005 246.511 217.439C246.511 215.9 247.915 214.82 249.913 214.82C251.911 214.82 253.315 215.9 253.315 217.439C253.315 219.005 251.911 220.031 249.913 220.031ZM273.905 223.001V219.464H265.94C267.965 218.087 269.585 216.926 270.773 215.765C272.852 213.74 273.635 211.904 273.635 209.933C273.635 206.18 270.665 203.831 266.912 203.831C262.7 203.831 259.838 206.315 259.838 210.581L263.78 210.824C263.78 208.934 264.59 207.341 266.831 207.341C268.613 207.341 269.558 208.529 269.558 210.014C269.558 211.796 268.532 213.173 266.642 214.658C263.051 217.493 260.081 219.653 260.081 219.626V223.001H273.905ZM283.874 203.831C280.337 203.831 276.962 205.613 276.962 209.231C276.962 210.554 277.664 212.282 279.554 213.146C277.394 214.01 276.422 215.819 276.422 217.547C276.422 221.516 280.094 223.271 283.874 223.271C287.681 223.271 291.326 221.516 291.326 217.547C291.326 215.819 290.381 214.01 288.194 213.146C290.111 212.282 290.786 210.554 290.786 209.231C290.786 205.505 287.411 203.831 283.874 203.831ZM283.874 211.688C282.092 211.688 280.904 210.878 280.904 209.366C280.904 207.935 282.146 207.071 283.874 207.071C285.602 207.071 286.844 207.935 286.844 209.366C286.844 210.878 285.656 211.688 283.874 211.688ZM283.874 220.031C281.876 220.031 280.472 219.005 280.472 217.439C280.472 215.9 281.876 214.82 283.874 214.82C285.872 214.82 287.276 215.9 287.276 217.439C287.276 219.005 285.872 220.031 283.874 220.031ZM296.391 218.222C295.014 218.222 293.853 219.383 293.853 220.733C293.853 222.245 294.906 223.136 296.472 223.136V223.217C296.472 223.568 296.337 224 295.446 224.243C295.149 224.324 294.771 224.405 294.312 224.486L294.447 225.728C298.092 225.728 299.226 223.487 299.226 221.408C299.226 219.653 298.119 218.222 296.391 218.222ZM309.375 219.815C306.999 219.815 305.784 217.439 305.784 213.929V213.2C305.784 209.663 306.999 207.287 309.375 207.287C311.751 207.287 312.939 209.663 312.939 213.2V213.929C312.939 217.439 311.751 219.815 309.375 219.815ZM309.375 203.831C304.056 203.831 301.815 208.664 301.815 213.551C301.815 218.438 304.056 223.271 309.375 223.271C314.694 223.271 316.935 218.438 316.935 213.551C316.935 208.664 314.694 203.831 309.375 203.831ZM332.306 223.001V218.735H335.06V215.279H332.306V204.101H327.743L319.049 214.658V218.735H328.472V223.001H332.306ZM322.613 215.279L328.472 208.205V215.279H322.613ZM338.361 223.001H342.843L350.16 207.773V204.101H336.687V207.719H346.272L338.361 223.001Z" fill="#0B0C0C"/>
<path d="M223.999 265.195C224.674 268.597 227.86 270.271 231.451 270.271C235.555 270.271 238.714 268.354 238.714 264.52C238.714 262.225 237.202 260.605 235.258 260.173C237.148 259.768 238.363 258.094 238.363 256.231C238.363 252.856 235.447 250.831 231.559 250.831C228.4 250.831 225.214 252.451 224.458 255.718L228.049 256.825C228.589 255.367 229.696 254.287 231.586 254.287C233.233 254.287 234.394 255.124 234.394 256.474C234.394 258.013 233.098 258.688 230.803 258.688H229.912V262.09H231.046C233.611 262.09 234.718 262.927 234.718 264.412C234.718 265.627 233.881 266.842 231.478 266.842C229.75 266.842 228.427 266.032 227.86 264.223L223.999 265.195ZM255.316 270.001V266.464H247.351C249.376 265.087 250.996 263.926 252.184 262.765C254.263 260.74 255.046 258.904 255.046 256.933C255.046 253.18 252.076 250.831 248.323 250.831C244.111 250.831 241.249 253.315 241.249 257.581L245.191 257.824C245.191 255.934 246.001 254.341 248.242 254.341C250.024 254.341 250.969 255.529 250.969 257.014C250.969 258.796 249.943 260.173 248.053 261.658C244.462 264.493 241.492 266.653 241.492 266.626V270.001H255.316ZM257.914 261.253C257.914 266.923 260.911 270.271 265.528 270.271C269.74 270.271 272.548 267.409 272.548 263.602C272.548 260.038 269.848 257.5 266.203 257.5C264.583 257.5 262.963 258.121 262.045 259.255C262.234 256.582 263.341 254.26 265.852 254.26C267.175 254.26 268.12 254.8 268.714 256.069L272.413 254.692C271.495 252.424 269.2 250.831 266.041 250.831C260.263 250.831 257.914 255.718 257.914 260.821V261.253ZM262.153 263.818C262.153 262.09 263.422 260.713 265.393 260.713C267.364 260.713 268.606 262.09 268.606 263.818C268.606 265.573 267.364 266.95 265.393 266.95C263.422 266.95 262.153 265.573 262.153 263.818Z" fill="#0B0C0C"/>
</g>
<path d="M122 187L136 173" stroke="#009FE3" stroke-width="2"/>
<path d="M171 180L185 166" stroke="#009FE3" stroke-width="2"/>
<path d="M143 180L157 166" stroke="#009FE3" stroke-width="2"/>
<path d="M171 180L157 166" stroke="#009FE3" stroke-width="2"/>
<path d="M136 173L143 180" stroke="#009FE3" stroke-width="2"/>
<circle cx="136" cy="173" r="2.5" fill="white" stroke="#009FE3"/>
<circle cx="157" cy="166" r="2.5" fill="white" stroke="#009FE3"/>
<circle cx="143" cy="180" r="2.5" fill="white" stroke="#009FE3"/>
<circle r="2.5" transform="matrix(-1 0 0 1 171 180)" fill="white" stroke="#009FE3"/>
<circle r="2.5" transform="matrix(-1 0 0 1 122 187)" fill="white" stroke="#009FE3"/>
<circle r="2.5" transform="matrix(-1 0 0 1 185 166)" fill="white" stroke="#009FE3"/>
<path d="M53.364 28L59.728 34.364L53.364 40.7279" stroke="#009FE3" stroke-width="2" stroke-linecap="round" stroke-linejoin="round"/>
<path d="M123.364 28L129.728 34.364L123.364 40.7279" stroke="#009FE3" stroke-width="2" stroke-linecap="round" stroke-linejoin="round"/>
<path d="M194.364 28L200.728 34.364L194.364 40.7279" stroke="#009FE3" stroke-width="2" stroke-linecap="round" stroke-linejoin="round"/>
<defs>
<filter id="filter0_i_278_1198" x="4.74731" y="50.8643" width="17.6329" height="6.78198" filterUnits="userSpaceOnUse" color-interpolation-filters="sRGB">
<feFlood flood-opacity="0" result="BackgroundImageFix"/>
<feBlend mode="normal" in="SourceGraphic" in2="BackgroundImageFix" result="shape"/>
<feColorMatrix in="SourceAlpha" type="matrix" values="0 0 0 0 0 0 0 0 0 0 0 0 0 0 0 0 0 0 127 0" result="hardAlpha"/>
<feOffset dy="-1"/>
<feComposite in2="hardAlpha" operator="arithmetic" k2="-1" k3="1"/>
<feColorMatrix type="matrix" values="0 0 0 0 0 0 0 0 0 0.392157 0 0 0 0 0.207843 0 0 0 1 0"/>
<feBlend mode="normal" in2="shape" result="effect1_innerShadow_278_1198"/>
</filter>
<filter id="filter1_i_278_1198" x="74.7473" y="43.7261" width="17.6329" height="6.78198" filterUnits="userSpaceOnUse" color-interpolation-filters="sRGB">
<feFlood flood-opacity="0" result="BackgroundImageFix"/>
<feBlend mode="normal" in="SourceGraphic" in2="BackgroundImageFix" result="shape"/>
<feColorMatrix in="SourceAlpha" type="matrix" values="0 0 0 0 0 0 0 0 0 0 0 0 0 0 0 0 0 0 127 0" result="hardAlpha"/>
<feOffset dy="-1"/>
<feComposite in2="hardAlpha" operator="arithmetic" k2="-1" k3="1"/>
<feColorMatrix type="matrix" values="0 0 0 0 0 0 0 0 0 0.392157 0 0 0 0 0.207843 0 0 0 1 0"/>
<feBlend mode="normal" in2="shape" result="effect1_innerShadow_278_1198"/>
</filter>
<filter id="filter2_i_278_1198" x="145.279" y="51.186" width="17.6329" height="6.78198" filterUnits="userSpaceOnUse" color-interpolation-filters="sRGB">
<feFlood flood-opacity="0" result="BackgroundImageFix"/>
<feBlend mode="normal" in="SourceGraphic" in2="BackgroundImageFix" result="shape"/>
<feColorMatrix in="SourceAlpha" type="matrix" values="0 0 0 0 0 0 0 0 0 0 0 0 0 0 0 0 0 0 127 0" result="hardAlpha"/>
<feOffset dy="-1"/>
<feComposite in2="hardAlpha" operator="arithmetic" k2="-1" k3="1"/>
<feColorMatrix type="matrix" values="0 0 0 0 0 0 0 0 0 0.392157 0 0 0 0 0.207843 0 0 0 1 0"/>
<feBlend mode="normal" in2="shape" result="effect1_innerShadow_278_1198"/>
</filter>
<linearGradient id="paint0_linear_278_1198" x1="172.698" y1="144.699" x2="246.665" y2="218.665" gradientUnits="userSpaceOnUse">
<stop stop-color="#D9D9D9" stop-opacity="0"/>
<stop offset="1" stop-color="#009FE3"/>
</linearGradient>
<clipPath id="clip0_278_1198">
<rect width="33.9096" height="14.9202" fill="white" transform="translate(145.279 11.1729)"/>
</clipPath>
</defs>
</svg>
